# Wavefront OBJ file automatically generated by Tiled2Unity

# Vertices (Count = 136)
v 0 -0.319999992847443 0
v -0.319999992847443 -0.319999992847443 0
v -0.319999992847443 0 0
v 0 0 0
v -0.639999985694885 -0.319999992847443 0
v -0.639999985694885 0 0
v -0.959999978542328 -0.319999992847443 0
v -0.959999978542328 0 0
v -1.27999997138977 -0.319999992847443 0
v -1.27999997138977 0 0
v -1.59999990463257 -0.319999992847443 0
v -1.59999990463257 0 0
v -1.91999995708466 -0.319999992847443 0
v -1.91999995708466 0 0
v -2.24000000953674 -0.319999992847443 0
v -2.24000000953674 0 0
v -2.55999994277954 -0.319999992847443 0
v -2.55999994277954 0 0
v -2.87999987602234 -0.319999992847443 0
v -2.87999987602234 0 0
v -3.19999980926514 -0.319999992847443 0
v -3.19999980926514 0 0
v -3.51999998092651 -0.319999992847443 0
v -3.51999998092651 0 0
v -3.83999991416931 -0.319999992847443 0
v -3.83999991416931 0 0
v -4.15999984741211 -0.319999992847443 0
v -4.15999984741211 0 0
v -4.48000001907349 -0.319999992847443 0
v -4.48000001907349 0 0
v -4.79999971389771 -0.319999992847443 0
v -4.79999971389771 0 0
v -5.11999988555908 -0.319999992847443 0
v -5.11999988555908 0 0
v 0 -0.639999985694885 0
v -0.319999992847443 -0.639999985694885 0
v -0.639999985694885 -0.639999985694885 0
v -0.959999978542328 -0.639999985694885 0
v -1.27999997138977 -0.639999985694885 0
v -1.59999990463257 -0.639999985694885 0
v -1.91999995708466 -0.639999985694885 0
v -2.24000000953674 -0.639999985694885 0
v -2.55999994277954 -0.639999985694885 0
v -2.87999987602234 -0.639999985694885 0
v -3.19999980926514 -0.639999985694885 0
v -3.51999998092651 -0.639999985694885 0
v -3.83999991416931 -0.639999985694885 0
v -4.15999984741211 -0.639999985694885 0
v -4.48000001907349 -0.639999985694885 0
v -4.79999971389771 -0.639999985694885 0
v -5.11999988555908 -0.639999985694885 0
v 0 -0.959999978542328 0
v -0.319999992847443 -0.959999978542328 0
v -0.639999985694885 -0.959999978542328 0
v -0.959999978542328 -0.959999978542328 0
v -1.27999997138977 -0.959999978542328 0
v -1.59999990463257 -0.959999978542328 0
v -1.91999995708466 -0.959999978542328 0
v -2.24000000953674 -0.959999978542328 0
v -2.55999994277954 -0.959999978542328 0
v -2.87999987602234 -0.959999978542328 0
v -3.19999980926514 -0.959999978542328 0
v -3.51999998092651 -0.959999978542328 0
v -3.83999991416931 -0.959999978542328 0
v -4.15999984741211 -0.959999978542328 0
v -4.48000001907349 -0.959999978542328 0
v -4.79999971389771 -0.959999978542328 0
v -5.11999988555908 -0.959999978542328 0
v 0 -1.27999997138977 0
v -0.319999992847443 -1.27999997138977 0
v -0.639999985694885 -1.27999997138977 0
v -0.959999978542328 -1.27999997138977 0
v -1.27999997138977 -1.27999997138977 0
v -1.59999990463257 -1.27999997138977 0
v -1.91999995708466 -1.27999997138977 0
v -2.24000000953674 -1.27999997138977 0
v -2.55999994277954 -1.27999997138977 0
v -2.87999987602234 -1.27999997138977 0
v -3.19999980926514 -1.27999997138977 0
v -3.51999998092651 -1.27999997138977 0
v -3.83999991416931 -1.27999997138977 0
v -4.15999984741211 -1.27999997138977 0
v -4.48000001907349 -1.27999997138977 0
v -4.79999971389771 -1.27999997138977 0
v -5.11999988555908 -1.27999997138977 0
v 0 -1.59999990463257 0
v -0.319999992847443 -1.59999990463257 0
v -0.639999985694885 -1.59999990463257 0
v -0.959999978542328 -1.59999990463257 0
v -1.27999997138977 -1.59999990463257 0
v -1.59999990463257 -1.59999990463257 0
v -1.91999995708466 -1.59999990463257 0
v -2.24000000953674 -1.59999990463257 0
v -2.55999994277954 -1.59999990463257 0
v -2.87999987602234 -1.59999990463257 0
v -3.19999980926514 -1.59999990463257 0
v -3.51999998092651 -1.59999990463257 0
v -3.83999991416931 -1.59999990463257 0
v -4.15999984741211 -1.59999990463257 0
v -4.48000001907349 -1.59999990463257 0
v -4.79999971389771 -1.59999990463257 0
v -5.11999988555908 -1.59999990463257 0
v 0 -1.91999995708466 0
v -0.319999992847443 -1.91999995708466 0
v -0.639999985694885 -1.91999995708466 0
v -0.959999978542328 -1.91999995708466 0
v -1.27999997138977 -1.91999995708466 0
v -1.59999990463257 -1.91999995708466 0
v -1.91999995708466 -1.91999995708466 0
v -2.24000000953674 -1.91999995708466 0
v -2.55999994277954 -1.91999995708466 0
v -2.87999987602234 -1.91999995708466 0
v -3.19999980926514 -1.91999995708466 0
v -3.51999998092651 -1.91999995708466 0
v -3.83999991416931 -1.91999995708466 0
v -4.15999984741211 -1.91999995708466 0
v -4.48000001907349 -1.91999995708466 0
v -4.79999971389771 -1.91999995708466 0
v -5.11999988555908 -1.91999995708466 0
v 0 -2.24000000953674 0
v -0.319999992847443 -2.24000000953674 0
v -0.639999985694885 -2.24000000953674 0
v -0.959999978542328 -2.24000000953674 0
v -1.27999997138977 -2.24000000953674 0
v -1.59999990463257 -2.24000000953674 0
v -1.91999995708466 -2.24000000953674 0
v -2.24000000953674 -2.24000000953674 0
v -2.55999994277954 -2.24000000953674 0
v -2.87999987602234 -2.24000000953674 0
v -3.19999980926514 -2.24000000953674 0
v -3.51999998092651 -2.24000000953674 0
v -3.83999991416931 -2.24000000953674 0
v -4.15999984741211 -2.24000000953674 0
v -4.48000001907349 -2.24000000953674 0
v -4.79999971389771 -2.24000000953674 0
v -5.11999988555908 -2.24000000953674 0

# Texture Coorindates (Count = 36)
vt 0.6876221 0.8751221
vt 0.7186279 0.8751221
vt 0.7186279 0.9061279
vt 0.6876221 0.9061279
vt 0.5001221 0.9063721
vt 0.5311279 0.9063721
vt 0.5311279 0.9373779
vt 0.5001221 0.9373779
vt 0.5001221 0.8751221
vt 0.5311279 0.8751221
vt 0.5311279 0.9061279
vt 0.5001221 0.9061279
vt 0.5001221 0.8438721
vt 0.5311279 0.8438721
vt 0.5311279 0.8748779
vt 0.5001221 0.8748779
vt 0.6876221 0.4063721
vt 0.7186279 0.4063721
vt 0.7186279 0.4373779
vt 0.6876221 0.4373779
vt 0.8126221 0.1876221
vt 0.8436279 0.1876221
vt 0.8436279 0.2186279
vt 0.8126221 0.2186279
vt 0.7188721 0.4063721
vt 0.7498779 0.4063721
vt 0.7498779 0.4373779
vt 0.7188721 0.4373779
vt 0.8438721 0.1876221
vt 0.8748779 0.1876221
vt 0.8748779 0.2186279
vt 0.8438721 0.2186279
vt 0.0001220703 0.0001220703
vt 0.9998779 0.0001220703
vt 0.9998779 0.9998779
vt 0.0001220703 0.9998779

# Normal
vn 0 0 -1

# Groups (Count = 5)
g mesh_[00]_[02]
f  1/1/1  2/2/1  3/3/1  4/4/1 
f  2/1/1  5/2/1  6/3/1  3/4/1 
f  5/1/1  7/2/1  8/3/1  6/4/1 
f  7/1/1  9/2/1  10/3/1  8/4/1 
f  9/1/1  11/2/1  12/3/1  10/4/1 
f  11/1/1  13/2/1  14/3/1  12/4/1 
f  13/1/1  15/2/1  16/3/1  14/4/1 
f  15/1/1  17/2/1  18/3/1  16/4/1 
f  17/1/1  19/2/1  20/3/1  18/4/1 
f  19/1/1  21/2/1  22/3/1  20/4/1 
f  21/1/1  23/2/1  24/3/1  22/4/1 
f  23/1/1  25/2/1  26/3/1  24/4/1 
f  25/1/1  27/2/1  28/3/1  26/4/1 
f  27/1/1  29/2/1  30/3/1  28/4/1 
f  29/1/1  31/2/1  32/3/1  30/4/1 
f  31/1/1  33/2/1  34/3/1  32/4/1 
f  35/1/1  36/2/1  2/3/1  1/4/1 
f  36/1/1  37/2/1  5/3/1  2/4/1 
f  37/1/1  38/2/1  7/3/1  5/4/1 
f  38/1/1  39/2/1  9/3/1  7/4/1 
f  39/1/1  40/2/1  11/3/1  9/4/1 
f  40/1/1  41/2/1  13/3/1  11/4/1 
f  41/1/1  42/2/1  15/3/1  13/4/1 
f  42/1/1  43/2/1  17/3/1  15/4/1 
f  43/1/1  44/2/1  19/3/1  17/4/1 
f  44/1/1  45/2/1  21/3/1  19/4/1 
f  45/1/1  46/2/1  23/3/1  21/4/1 
f  46/1/1  47/2/1  25/3/1  23/4/1 
f  47/1/1  48/2/1  27/3/1  25/4/1 
f  48/1/1  49/2/1  29/3/1  27/4/1 
f  49/1/1  50/2/1  31/3/1  29/4/1 
f  50/1/1  51/2/1  33/3/1  31/4/1 
f  52/1/1  53/2/1  36/3/1  35/4/1 
f  53/1/1  54/2/1  37/3/1  36/4/1 
f  54/1/1  55/2/1  38/3/1  37/4/1 
f  55/1/1  56/2/1  39/3/1  38/4/1 
f  56/1/1  57/2/1  40/3/1  39/4/1 
f  57/1/1  58/2/1  41/3/1  40/4/1 
f  58/1/1  59/2/1  42/3/1  41/4/1 
f  59/1/1  60/2/1  43/3/1  42/4/1 
f  60/1/1  61/2/1  44/3/1  43/4/1 
f  61/1/1  62/2/1  45/3/1  44/4/1 
f  62/1/1  63/2/1  46/3/1  45/4/1 
f  63/1/1  64/2/1  47/3/1  46/4/1 
f  64/1/1  65/2/1  48/3/1  47/4/1 
f  65/1/1  66/2/1  49/3/1  48/4/1 
f  66/1/1  67/2/1  50/3/1  49/4/1 
f  67/1/1  68/2/1  51/3/1  50/4/1 
f  69/1/1  70/2/1  53/3/1  52/4/1 
f  70/1/1  71/2/1  54/3/1  53/4/1 
f  71/1/1  72/2/1  55/3/1  54/4/1 
f  72/1/1  73/2/1  56/3/1  55/4/1 
f  73/1/1  74/2/1  57/3/1  56/4/1 
f  74/1/1  75/2/1  58/3/1  57/4/1 
f  75/1/1  76/2/1  59/3/1  58/4/1 
f  76/1/1  77/2/1  60/3/1  59/4/1 
f  77/1/1  78/2/1  61/3/1  60/4/1 
f  78/1/1  79/2/1  62/3/1  61/4/1 
f  79/1/1  80/2/1  63/3/1  62/4/1 
f  80/1/1  81/2/1  64/3/1  63/4/1 
f  81/1/1  82/2/1  65/3/1  64/4/1 
f  82/1/1  83/2/1  66/3/1  65/4/1 
f  83/1/1  84/2/1  67/3/1  66/4/1 
f  84/1/1  85/2/1  68/3/1  67/4/1 
f  86/1/1  87/2/1  70/3/1  69/4/1 
f  87/1/1  88/2/1  71/3/1  70/4/1 
f  88/1/1  89/2/1  72/3/1  71/4/1 
f  89/1/1  90/2/1  73/3/1  72/4/1 
f  90/1/1  91/2/1  74/3/1  73/4/1 
f  91/1/1  92/2/1  75/3/1  74/4/1 
f  92/1/1  93/2/1  76/3/1  75/4/1 
f  93/1/1  94/2/1  77/3/1  76/4/1 
f  94/1/1  95/2/1  78/3/1  77/4/1 
f  95/1/1  96/2/1  79/3/1  78/4/1 
f  96/1/1  97/2/1  80/3/1  79/4/1 
f  97/1/1  98/2/1  81/3/1  80/4/1 
f  98/1/1  99/2/1  82/3/1  81/4/1 
f  99/1/1  100/2/1  83/3/1  82/4/1 
f  100/1/1  101/2/1  84/3/1  83/4/1 
f  101/1/1  102/2/1  85/3/1  84/4/1 
f  103/1/1  104/2/1  87/3/1  86/4/1 
f  104/1/1  105/2/1  88/3/1  87/4/1 
f  105/1/1  106/2/1  89/3/1  88/4/1 
f  106/1/1  107/2/1  90/3/1  89/4/1 
f  107/1/1  108/2/1  91/3/1  90/4/1 
f  108/1/1  109/2/1  92/3/1  91/4/1 
f  109/1/1  110/2/1  93/3/1  92/4/1 
f  110/1/1  111/2/1  94/3/1  93/4/1 
f  111/1/1  112/2/1  95/3/1  94/4/1 
f  112/1/1  113/2/1  96/3/1  95/4/1 
f  113/1/1  114/2/1  97/3/1  96/4/1 
f  114/1/1  115/2/1  98/3/1  97/4/1 
f  115/1/1  116/2/1  99/3/1  98/4/1 
f  116/1/1  117/2/1  100/3/1  99/4/1 
f  117/1/1  118/2/1  101/3/1  100/4/1 
f  118/1/1  119/2/1  102/3/1  101/4/1 
f  120/1/1  121/2/1  104/3/1  103/4/1 
f  121/1/1  122/2/1  105/3/1  104/4/1 
f  122/1/1  123/2/1  106/3/1  105/4/1 
f  123/1/1  124/2/1  107/3/1  106/4/1 
f  124/1/1  125/2/1  108/3/1  107/4/1 
f  125/1/1  126/2/1  109/3/1  108/4/1 
f  126/1/1  127/2/1  110/3/1  109/4/1 
f  127/1/1  128/2/1  111/3/1  110/4/1 
f  128/1/1  129/2/1  112/3/1  111/4/1 
f  129/1/1  130/2/1  113/3/1  112/4/1 
f  130/1/1  131/2/1  114/3/1  113/4/1 
f  131/1/1  132/2/1  115/3/1  114/4/1 
f  132/1/1  133/2/1  116/3/1  115/4/1 
f  133/1/1  134/2/1  117/3/1  116/4/1 
f  134/1/1  135/2/1  118/3/1  117/4/1 
f  135/1/1  136/2/1  119/3/1  118/4/1 
g mesh_[01]_[02]
f  69/5/1  70/6/1  53/7/1  52/8/1 
f  70/5/1  71/6/1  54/7/1  53/8/1 
f  71/5/1  72/6/1  55/7/1  54/8/1 
f  72/5/1  73/6/1  56/7/1  55/8/1 
f  73/5/1  74/6/1  57/7/1  56/8/1 
f  74/5/1  75/6/1  58/7/1  57/8/1 
f  75/5/1  76/6/1  59/7/1  58/8/1 
f  76/5/1  77/6/1  60/7/1  59/8/1 
f  77/5/1  78/6/1  61/7/1  60/8/1 
f  78/5/1  79/6/1  62/7/1  61/8/1 
f  79/5/1  80/6/1  63/7/1  62/8/1 
f  80/5/1  81/6/1  64/7/1  63/8/1 
f  81/5/1  82/6/1  65/7/1  64/8/1 
f  82/5/1  83/6/1  66/7/1  65/8/1 
f  83/5/1  84/6/1  67/7/1  66/8/1 
f  84/5/1  85/6/1  68/7/1  67/8/1 
f  86/9/1  87/10/1  70/11/1  69/12/1 
f  87/9/1  88/10/1  71/11/1  70/12/1 
f  88/9/1  89/10/1  72/11/1  71/12/1 
f  89/9/1  90/10/1  73/11/1  72/12/1 
f  90/9/1  91/10/1  74/11/1  73/12/1 
f  91/9/1  92/10/1  75/11/1  74/12/1 
f  92/9/1  93/10/1  76/11/1  75/12/1 
f  93/9/1  94/10/1  77/11/1  76/12/1 
f  94/9/1  95/10/1  78/11/1  77/12/1 
f  95/9/1  96/10/1  79/11/1  78/12/1 
f  96/9/1  97/10/1  80/11/1  79/12/1 
f  97/9/1  98/10/1  81/11/1  80/12/1 
f  98/9/1  99/10/1  82/11/1  81/12/1 
f  99/9/1  100/10/1  83/11/1  82/12/1 
f  100/9/1  101/10/1  84/11/1  83/12/1 
f  101/9/1  102/10/1  85/11/1  84/12/1 
f  103/13/1  104/14/1  87/15/1  86/16/1 
f  104/13/1  105/14/1  88/15/1  87/16/1 
f  105/13/1  106/14/1  89/15/1  88/16/1 
f  106/13/1  107/14/1  90/15/1  89/16/1 
f  107/13/1  108/14/1  91/15/1  90/16/1 
f  108/13/1  109/14/1  92/15/1  91/16/1 
f  109/13/1  110/14/1  93/15/1  92/16/1 
f  110/13/1  111/14/1  94/15/1  93/16/1 
f  111/13/1  112/14/1  95/15/1  94/16/1 
f  112/13/1  113/14/1  96/15/1  95/16/1 
f  113/13/1  114/14/1  97/15/1  96/16/1 
f  114/13/1  115/14/1  98/15/1  97/16/1 
f  115/13/1  116/14/1  99/15/1  98/16/1 
f  116/13/1  117/14/1  100/15/1  99/16/1 
f  117/13/1  118/14/1  101/15/1  100/16/1 
f  118/13/1  119/14/1  102/15/1  101/16/1 
g mesh_[02]_[02]
f  13/17/1  15/18/1  16/19/1  14/20/1 
f  19/17/1  21/18/1  22/19/1  20/20/1 
g mesh_[03]_[02]
f  1/21/1  2/22/1  3/23/1  4/24/1 
f  2/21/1  5/22/1  6/23/1  3/24/1 
f  5/21/1  7/22/1  8/23/1  6/24/1 
f  7/21/1  9/22/1  10/23/1  8/24/1 
f  9/21/1  11/22/1  12/23/1  10/24/1 
f  11/21/1  13/22/1  14/23/1  12/24/1 
f  17/25/1  19/26/1  20/27/1  18/28/1 
f  21/21/1  23/22/1  24/23/1  22/24/1 
f  23/21/1  25/22/1  26/23/1  24/24/1 
f  25/21/1  27/22/1  28/23/1  26/24/1 
f  27/21/1  29/22/1  30/23/1  28/24/1 
f  29/21/1  31/22/1  32/23/1  30/24/1 
f  31/21/1  33/22/1  34/23/1  32/24/1 
f  35/21/1  36/22/1  2/23/1  1/24/1 
f  47/25/1  48/26/1  27/27/1  25/28/1 
f  50/21/1  51/22/1  33/23/1  31/24/1 
f  52/21/1  53/22/1  36/23/1  35/24/1 
f  53/25/1  54/26/1  37/27/1  36/28/1 
f  55/29/1  56/30/1  39/31/1  38/32/1 
f  66/29/1  67/30/1  50/31/1  49/32/1 
f  67/21/1  68/22/1  51/23/1  50/24/1 
f  120/21/1  121/22/1  104/23/1  103/24/1 
f  121/21/1  122/22/1  105/23/1  104/24/1 
f  122/21/1  123/22/1  106/23/1  105/24/1 
f  123/21/1  124/22/1  107/23/1  106/24/1 
f  124/21/1  125/22/1  108/23/1  107/24/1 
f  125/25/1  126/26/1  109/27/1  108/28/1 
f  126/21/1  127/22/1  110/23/1  109/24/1 
f  127/21/1  128/22/1  111/23/1  110/24/1 
f  128/21/1  129/22/1  112/23/1  111/24/1 
f  129/21/1  130/22/1  113/23/1  112/24/1 
f  130/25/1  131/26/1  114/27/1  113/28/1 
f  131/21/1  132/22/1  115/23/1  114/24/1 
f  132/21/1  133/22/1  116/23/1  115/24/1 
f  133/21/1  134/22/1  117/23/1  116/24/1 
f  134/21/1  135/22/1  118/23/1  117/24/1 
f  135/25/1  136/26/1  119/27/1  118/28/1 
g mesh_[04]_[16]
f  1/33/1  2/34/1  3/35/1  4/36/1 
f  2/33/1  5/34/1  6/35/1  3/36/1 
f  5/33/1  7/34/1  8/35/1  6/36/1 
f  7/33/1  9/34/1  10/35/1  8/36/1 
f  9/33/1  11/34/1  12/35/1  10/36/1 
f  11/33/1  13/34/1  14/35/1  12/36/1 
f  13/33/1  15/34/1  16/35/1  14/36/1 
f  17/33/1  19/34/1  20/35/1  18/36/1 
f  19/33/1  21/34/1  22/35/1  20/36/1 
f  21/33/1  23/34/1  24/35/1  22/36/1 
f  23/33/1  25/34/1  26/35/1  24/36/1 
f  25/33/1  27/34/1  28/35/1  26/36/1 
f  27/33/1  29/34/1  30/35/1  28/36/1 
f  29/33/1  31/34/1  32/35/1  30/36/1 
f  31/33/1  33/34/1  34/35/1  32/36/1 
f  35/33/1  36/34/1  2/35/1  1/36/1 
f  47/33/1  48/34/1  27/35/1  25/36/1 
f  50/33/1  51/34/1  33/35/1  31/36/1 
f  52/33/1  53/34/1  36/35/1  35/36/1 
f  53/33/1  54/34/1  37/35/1  36/36/1 
f  67/33/1  68/34/1  51/35/1  50/36/1 
f  120/33/1  121/34/1  104/35/1  103/36/1 
f  121/33/1  122/34/1  105/35/1  104/36/1 
f  122/33/1  123/34/1  106/35/1  105/36/1 
f  123/33/1  124/34/1  107/35/1  106/36/1 
f  124/33/1  125/34/1  108/35/1  107/36/1 
f  125/33/1  126/34/1  109/35/1  108/36/1 
f  126/33/1  127/34/1  110/35/1  109/36/1 
f  127/33/1  128/34/1  111/35/1  110/36/1 
f  128/33/1  129/34/1  112/35/1  111/36/1 
f  129/33/1  130/34/1  113/35/1  112/36/1 
f  130/33/1  131/34/1  114/35/1  113/36/1 
f  131/33/1  132/34/1  115/35/1  114/36/1 
f  132/33/1  133/34/1  116/35/1  115/36/1 
f  133/33/1  134/34/1  117/35/1  116/36/1 
f  134/33/1  135/34/1  118/35/1  117/36/1 
f  135/33/1  136/34/1  119/35/1  118/36/1 
