# Wavefront OBJ file automatically generated by Tiled2Unity

# Vertices (Count = 111)
v -2.87999987602234 -2.24000000953674 0
v -3.19999980926514 -2.24000000953674 0
v -3.19999980926514 -1.91999995708466 0
v -2.87999987602234 -1.91999995708466 0
v -5.11999988555908 -2.24000000953674 0
v -5.44000005722046 -2.24000000953674 0
v -5.44000005722046 -1.91999995708466 0
v -5.11999988555908 -1.91999995708466 0
v 0 -2.55999994277954 0
v -0.319999992847443 -2.55999994277954 0
v -0.319999992847443 -2.24000000953674 0
v 0 -2.24000000953674 0
v -0.639999985694885 -2.55999994277954 0
v -0.639999985694885 -2.24000000953674 0
v -0.959999978542328 -2.55999994277954 0
v -0.959999978542328 -2.24000000953674 0
v -1.27999997138977 -2.55999994277954 0
v -1.27999997138977 -2.24000000953674 0
v -1.59999990463257 -2.55999994277954 0
v -1.59999990463257 -2.24000000953674 0
v -1.91999995708466 -2.55999994277954 0
v -1.91999995708466 -2.24000000953674 0
v -2.24000000953674 -2.55999994277954 0
v -2.24000000953674 -2.24000000953674 0
v -2.55999994277954 -2.55999994277954 0
v -2.55999994277954 -2.24000000953674 0
v -2.87999987602234 -2.55999994277954 0
v -3.19999980926514 -2.55999994277954 0
v -3.51999998092651 -2.55999994277954 0
v -3.51999998092651 -2.24000000953674 0
v -3.83999991416931 -2.55999994277954 0
v -4.15999984741211 -2.55999994277954 0
v -4.15999984741211 -2.24000000953674 0
v -3.83999991416931 -2.24000000953674 0
v -4.48000001907349 -2.55999994277954 0
v -4.48000001907349 -2.24000000953674 0
v -4.79999971389771 -2.55999994277954 0
v -4.79999971389771 -2.24000000953674 0
v -5.11999988555908 -2.55999994277954 0
v -5.44000005722046 -2.55999994277954 0
v -5.75999975204468 -2.55999994277954 0
v -5.75999975204468 -2.24000000953674 0
v -6.07999992370605 -2.55999994277954 0
v -6.07999992370605 -2.24000000953674 0
v -6.39999961853027 -2.55999994277954 0
v -6.39999961853027 -2.24000000953674 0
v 0 -2.87999987602234 0
v -0.319999992847443 -2.87999987602234 0
v -0.639999985694885 -2.87999987602234 0
v -0.959999978542328 -2.87999987602234 0
v -1.27999997138977 -2.87999987602234 0
v -1.59999990463257 -2.87999987602234 0
v -1.91999995708466 -2.87999987602234 0
v -2.24000000953674 -2.87999987602234 0
v -2.55999994277954 -2.87999987602234 0
v -2.87999987602234 -2.87999987602234 0
v -3.19999980926514 -2.87999987602234 0
v -3.51999998092651 -2.87999987602234 0
v -3.83999991416931 -2.87999987602234 0
v -4.15999984741211 -2.87999987602234 0
v -4.48000001907349 -2.87999987602234 0
v -4.79999971389771 -2.87999987602234 0
v -5.11999988555908 -2.87999987602234 0
v -5.44000005722046 -2.87999987602234 0
v -5.75999975204468 -2.87999987602234 0
v -6.07999992370605 -2.87999987602234 0
v -6.39999961853027 -2.87999987602234 0
v -1.59999990463257 -3.19999980926514 0
v -1.91999995708466 -3.19999980926514 0
v -3.19999980926514 -1.59999990463257 0
v -2.87999987602234 -1.59999990463257 0
v -5.44000005722046 -1.59999990463257 0
v -5.11999988555908 -1.59999990463257 0
v -0.319999992847443 -1.91999995708466 0
v 0 -1.91999995708466 0
v -0.639999985694885 -1.91999995708466 0
v -0.959999978542328 -1.91999995708466 0
v -1.27999997138977 -1.91999995708466 0
v -1.59999990463257 -1.91999995708466 0
v -1.91999995708466 -1.91999995708466 0
v -2.24000000953674 -1.91999995708466 0
v -2.55999994277954 -1.91999995708466 0
v -3.51999998092651 -1.91999995708466 0
v -4.15999984741211 -1.91999995708466 0
v -3.83999991416931 -1.91999995708466 0
v -4.48000001907349 -1.91999995708466 0
v -4.79999971389771 -1.91999995708466 0
v -5.75999975204468 -1.91999995708466 0
v -6.07999992370605 -1.91999995708466 0
v -6.39999961853027 -1.91999995708466 0
v 0 -3.19999980926514 0
v -0.319999992847443 -3.19999980926514 0
v -0.639999985694885 -3.19999980926514 0
v -0.959999978542328 -3.19999980926514 0
v -1.27999997138977 -3.19999980926514 0
v -2.24000000953674 -3.19999980926514 0
v -2.55999994277954 -3.19999980926514 0
v -2.87999987602234 -3.19999980926514 0
v -3.19999980926514 -3.19999980926514 0
v -3.51999998092651 -3.19999980926514 0
v -3.83999991416931 -3.19999980926514 0
v -4.15999984741211 -3.19999980926514 0
v -4.48000001907349 -3.19999980926514 0
v -4.79999971389771 -3.19999980926514 0
v -5.11999988555908 -3.19999980926514 0
v -5.44000005722046 -3.19999980926514 0
v -5.75999975204468 -3.19999980926514 0
v -6.07999992370605 -3.19999980926514 0
v -6.39999961853027 -3.19999980926514 0
v -1.59999990463257 -3.51999998092651 0
v -1.91999995708466 -3.51999998092651 0

# Texture Coorindates (Count = 11)
vt 0.6251221 0.2813721
vt 0.6561279 0.2813721
vt 0.6561279 0.3123779
vt 0.6251221 0.3123779
vt 0.0001220703 0.8751221
vt 0.1248779 0.8751221
vt 0.1248779 0.9998779
vt 0.0001220703 0.9998779
vt 0.0001220703 0.0001220703
vt 0.9998779 0.0001220703
vt 0.9998779 0.9998779

# Normal
vn 0 0 -1

# Groups (Count = 3)
g mesh_[00]_[02]
f  1/1/1  2/2/1  3/3/1  4/4/1 
f  5/1/1  6/2/1  7/3/1  8/4/1 
f  9/1/1  10/2/1  11/3/1  12/4/1 
f  10/1/1  13/2/1  14/3/1  11/4/1 
f  13/1/1  15/2/1  16/3/1  14/4/1 
f  15/1/1  17/2/1  18/3/1  16/4/1 
f  17/1/1  19/2/1  20/3/1  18/4/1 
f  19/1/1  21/2/1  22/3/1  20/4/1 
f  21/1/1  23/2/1  24/3/1  22/4/1 
f  23/1/1  25/2/1  26/3/1  24/4/1 
f  25/1/1  27/2/1  1/3/1  26/4/1 
f  27/1/1  28/2/1  2/3/1  1/4/1 
f  28/1/1  29/2/1  30/3/1  2/4/1 
f  31/1/1  32/2/1  33/3/1  34/4/1 
f  32/1/1  35/2/1  36/3/1  33/4/1 
f  35/1/1  37/2/1  38/3/1  36/4/1 
f  37/1/1  39/2/1  5/3/1  38/4/1 
f  39/1/1  40/2/1  6/3/1  5/4/1 
f  40/1/1  41/2/1  42/3/1  6/4/1 
f  41/1/1  43/2/1  44/3/1  42/4/1 
f  43/1/1  45/2/1  46/3/1  44/4/1 
f  47/1/1  48/2/1  10/3/1  9/4/1 
f  48/1/1  49/2/1  13/3/1  10/4/1 
f  49/1/1  50/2/1  15/3/1  13/4/1 
f  50/1/1  51/2/1  17/3/1  15/4/1 
f  51/1/1  52/2/1  19/3/1  17/4/1 
f  52/1/1  53/2/1  21/3/1  19/4/1 
f  53/1/1  54/2/1  23/3/1  21/4/1 
f  54/1/1  55/2/1  25/3/1  23/4/1 
f  55/1/1  56/2/1  27/3/1  25/4/1 
f  56/1/1  57/2/1  28/3/1  27/4/1 
f  57/1/1  58/2/1  29/3/1  28/4/1 
f  58/1/1  59/2/1  31/3/1  29/4/1 
f  59/1/1  60/2/1  32/3/1  31/4/1 
f  60/1/1  61/2/1  35/3/1  32/4/1 
f  62/1/1  63/2/1  39/3/1  37/4/1 
f  63/1/1  64/2/1  40/3/1  39/4/1 
f  64/1/1  65/2/1  41/3/1  40/4/1 
f  65/1/1  66/2/1  43/3/1  41/4/1 
f  66/1/1  67/2/1  45/3/1  43/4/1 
f  68/1/1  69/2/1  53/3/1  52/4/1 
g mesh_[01]_[19]
f  4/5/1  3/6/1  70/7/1  71/8/1 
f  8/5/1  7/6/1  72/7/1  73/8/1 
f  12/5/1  11/6/1  74/7/1  75/8/1 
f  11/5/1  14/6/1  76/7/1  74/8/1 
f  14/5/1  16/6/1  77/7/1  76/8/1 
f  16/5/1  18/6/1  78/7/1  77/8/1 
f  18/5/1  20/6/1  79/7/1  78/8/1 
f  20/5/1  22/6/1  80/7/1  79/8/1 
f  22/5/1  24/6/1  81/7/1  80/8/1 
f  24/5/1  26/6/1  82/7/1  81/8/1 
f  26/5/1  1/6/1  4/7/1  82/8/1 
f  2/5/1  30/6/1  83/7/1  3/8/1 
f  34/5/1  33/6/1  84/7/1  85/8/1 
f  33/5/1  36/6/1  86/7/1  84/8/1 
f  36/5/1  38/6/1  87/7/1  86/8/1 
f  38/5/1  5/6/1  8/7/1  87/8/1 
f  6/5/1  42/6/1  88/7/1  7/8/1 
f  42/5/1  44/6/1  89/7/1  88/8/1 
f  44/5/1  46/6/1  90/7/1  89/8/1 
f  29/5/1  31/6/1  34/7/1  30/8/1 
f  61/5/1  62/6/1  37/7/1  35/8/1 
f  91/5/1  92/6/1  48/7/1  47/8/1 
f  92/5/1  93/6/1  49/7/1  48/8/1 
f  93/5/1  94/6/1  50/7/1  49/8/1 
f  94/5/1  95/6/1  51/7/1  50/8/1 
f  95/5/1  68/6/1  52/7/1  51/8/1 
f  69/5/1  96/6/1  54/7/1  53/8/1 
f  96/5/1  97/6/1  55/7/1  54/8/1 
f  97/5/1  98/6/1  56/7/1  55/8/1 
f  98/5/1  99/6/1  57/7/1  56/8/1 
f  99/5/1  100/6/1  58/7/1  57/8/1 
f  100/5/1  101/6/1  59/7/1  58/8/1 
f  101/5/1  102/6/1  60/7/1  59/8/1 
f  102/5/1  103/6/1  61/7/1  60/8/1 
f  104/5/1  105/6/1  63/7/1  62/8/1 
f  105/5/1  106/6/1  64/7/1  63/8/1 
f  106/5/1  107/6/1  65/7/1  64/8/1 
f  107/5/1  108/6/1  66/7/1  65/8/1 
f  108/5/1  109/6/1  67/7/1  66/8/1 
f  110/5/1  111/6/1  69/7/1  68/8/1 
g mesh_[02]_[20]
f  4/9/1  3/10/1  70/11/1  71/8/1 
f  8/9/1  7/10/1  72/11/1  73/8/1 
f  12/9/1  11/10/1  74/11/1  75/8/1 
f  11/9/1  14/10/1  76/11/1  74/8/1 
f  14/9/1  16/10/1  77/11/1  76/8/1 
f  16/9/1  18/10/1  78/11/1  77/8/1 
f  18/9/1  20/10/1  79/11/1  78/8/1 
f  20/9/1  22/10/1  80/11/1  79/8/1 
f  22/9/1  24/10/1  81/11/1  80/8/1 
f  24/9/1  26/10/1  82/11/1  81/8/1 
f  26/9/1  1/10/1  4/11/1  82/8/1 
f  2/9/1  30/10/1  83/11/1  3/8/1 
f  34/9/1  33/10/1  84/11/1  85/8/1 
f  33/9/1  36/10/1  86/11/1  84/8/1 
f  36/9/1  38/10/1  87/11/1  86/8/1 
f  38/9/1  5/10/1  8/11/1  87/8/1 
f  6/9/1  42/10/1  88/11/1  7/8/1 
f  42/9/1  44/10/1  89/11/1  88/8/1 
f  44/9/1  46/10/1  90/11/1  89/8/1 
f  29/9/1  31/10/1  34/11/1  30/8/1 
f  61/9/1  62/10/1  37/11/1  35/8/1 
f  91/9/1  92/10/1  48/11/1  47/8/1 
f  92/9/1  93/10/1  49/11/1  48/8/1 
f  93/9/1  94/10/1  50/11/1  49/8/1 
f  94/9/1  95/10/1  51/11/1  50/8/1 
f  95/9/1  68/10/1  52/11/1  51/8/1 
f  69/9/1  96/10/1  54/11/1  53/8/1 
f  96/9/1  97/10/1  55/11/1  54/8/1 
f  97/9/1  98/10/1  56/11/1  55/8/1 
f  98/9/1  99/10/1  57/11/1  56/8/1 
f  99/9/1  100/10/1  58/11/1  57/8/1 
f  100/9/1  101/10/1  59/11/1  58/8/1 
f  101/9/1  102/10/1  60/11/1  59/8/1 
f  102/9/1  103/10/1  61/11/1  60/8/1 
f  104/9/1  105/10/1  63/11/1  62/8/1 
f  105/9/1  106/10/1  64/11/1  63/8/1 
f  106/9/1  107/10/1  65/11/1  64/8/1 
f  107/9/1  108/10/1  66/11/1  65/8/1 
f  108/9/1  109/10/1  67/11/1  66/8/1 
f  110/9/1  111/10/1  69/11/1  68/8/1 
